# xmcd CD database file
#
# Track frame offsets:
#	150
#	15505
#	26092
#	39973
#	60518
#	83925
#	103602
#	114736
#	138077
#	154647
#	164522
#	172186
#	209123
#	226657
#	266091
#
# Disc length: 3990 seconds
#
# Revision: 0
# Processed by: cddbd v1.5.2PL0 Copyright (c) Steve Scherf et al.
# Submitted via: CDex 1.70beta2
#
DISCID=c50f940f
DTITLE=Nina Simone - Tell it Like it is Disc2
DYEAR=1969
DGENRE=Jazz
TTITLE0=Save Me
TTITLE1=Why Must Your Love Well Be So Dry
TTITLE2=Whatever I Am ' You Made Me'
TTITLE3=What Have They Done To My Song Ma ?
TTITLE4=Suzanne
TTITLE5=Music For Lovers
TTITLE6=In Love In Vain
TTITLE7=I'll Look Around
TTITLE8=The Man With The Horn
TTITLE9=The Glory Of Love
TTITLE10=My Father/ Dialog
TTITLE11=Jelly Roll
TTITLE12=Tell It Like Is It
TTITLE13=22nd Century
TTITLE14=Thandewye (Spiritual )
EXTD=YEAR: 1969
EXTT0=
EXTT1=
EXTT2=
EXTT3=
EXTT4=
EXTT5=
EXTT6=
EXTT7=
EXTT8=
EXTT9=
EXTT10=
EXTT11=
EXTT12=
EXTT13=
EXTT14=
PLAYORDER=
